<?xml version="1.0" encoding="UTF-8"?>
<svg id="Layer_2" data-name="Layer 2" xmlns="http://www.w3.org/2000/svg" viewBox="0 0 300 300">
  <defs>
    <style>
      .cls-1 {
        fill-rule: evenodd;
      }
    </style>
  </defs>
  <g id="Layer_1-2" data-name="Layer 1">
    <path id="_129" data-name="129" class="cls-1" d="m238.88,238.88c3.75-3.75,9.83-3.75,13.58,0,14.57,14.57,47.54,47.54,47.54,47.54V13.58s-32.96,32.96-47.54,47.54c-3.75,3.75-9.83,3.75-13.58,0t0,0c-3.75-3.75-3.75-9.83,0-13.58L286.42,0H13.58l47.54,47.54c3.75,3.75,3.75,9.83,0,13.58t0,0c-3.75,3.75-9.83,3.75-13.58,0C32.96,46.54,0,13.58,0,13.58v272.84s32.96-32.96,47.54-47.54c3.75-3.75,9.83-3.75,13.58,0t0,0c3.75,3.75,3.75,9.83,0,13.58-14.57,14.57-47.54,47.54-47.54,47.54h272.84l-47.54-47.54c-3.75-3.75-3.75-9.83,0-13.58t0,0Zm-12.05-25.64s-12.33-12.33-20.37-20.37c-1.8-1.8-4.24-2.81-6.79-2.81s-4.99,1.01-6.79,2.81h0c-1.8,1.8-2.81,4.25-2.81,6.79s1.01,4.99,2.81,6.79l20.37,20.37h-126.49l20.37-20.37c1.8-1.8,2.81-4.24,2.81-6.79s-1.01-4.99-2.81-6.79h0c-1.8-1.8-4.24-2.81-6.79-2.81s-4.99,1.01-6.79,2.81c-8.04,8.05-20.37,20.37-20.37,20.37v-126.49s12.33,12.33,20.37,20.37c1.8,1.8,4.24,2.81,6.79,2.81s4.99-1.01,6.79-2.81h0c1.8-1.8,2.81-4.25,2.81-6.79s-1.01-4.99-2.81-6.79l-20.37-20.37h126.49l-20.37,20.37c-1.8,1.8-2.81,4.24-2.81,6.79s1.01,4.99,2.81,6.79h0c1.8,1.8,4.24,2.81,6.79,2.81s4.99-1.01,6.79-2.81c8.04-8.05,20.37-20.37,20.37-20.37v126.49Z"/>
  </g>
</svg>